<?xml version="1.0" encoding="iso-8859-1"?>
<!-- Generator: Adobe Illustrator 19.0.0, SVG Export Plug-In . SVG Version: 6.00 Build 0)  -->
<svg version="1.1" id="Capa_1" xmlns="http://www.w3.org/2000/svg" xmlns:xlink="http://www.w3.org/1999/xlink" x="0px" y="0px"
	 viewBox="0 0 512 512" style="enable-background:new 0 0 512 512;" xml:space="preserve">
<path style="fill:#75DC5E;" d="M208.279,488.894H10.238c-1.527,0-2.714-1.331-2.538-2.849l7.379-63.829
	c3.377-29.213,28.113-51.25,57.525-51.25h73.309c29.412,0,54.149,22.037,57.525,51.25l7.379,63.829
	C210.993,487.563,209.807,488.894,208.279,488.894z"/>
<g>
	<path style="fill:#2AAD52;" d="M203.438,422.216c-3.377-29.213-28.113-51.25-57.525-51.25h-20.521
		c29.412,0,54.149,22.037,57.525,51.25l7.709,66.678h17.653c1.527,0,2.714-1.331,2.538-2.849L203.438,422.216z"/>
	<path style="fill:#2AAD52;" d="M180.192,488.894v-50.727c0-4.208-3.412-7.62-7.62-7.62s-7.62,3.412-7.62,7.62v50.727H180.192z"/>
	<path style="fill:#2AAD52;" d="M53.567,488.894v-50.727c0-4.208-3.412-7.62-7.62-7.62s-7.62,3.412-7.62,7.62v50.727H53.567z"/>
</g>
<path style="fill:#B05A3D;" d="M82.617,326.537v46.49c0,14.714,11.928,26.642,26.642,26.642l0,0
	c14.714,0,26.642-11.928,26.642-26.642v-46.49H82.617z"/>
<path style="fill:#D7875F;" d="M196.476,245.836h-16.223v-39.118c0-28.326-22.963-51.289-51.289-51.289h-39.41
	c-28.326,0-51.289,22.963-51.289,51.289v39.118H22.041c-9.158,0-16.582,7.424-16.582,16.582v7.843
	c0,9.158,7.424,16.582,16.582,16.582h16.326c1.935,37.483,32.934,67.278,70.891,67.278c18.979,0,36.215-7.445,48.953-19.581
	s20.965-28.961,21.939-47.697h16.326c9.158,0,16.582-7.424,16.582-16.582v-7.843C213.058,253.26,205.634,245.836,196.476,245.836z"
	/>
<g>
	<path style="fill:#475D6D;" d="M82.614,314.466c-0.95,0-1.914-0.179-2.849-0.556c-3.903-1.575-5.79-6.016-4.215-9.918
		c1.824-4.52,4.51-8.572,7.983-12.045c6.887-6.871,16.021-10.651,25.725-10.651c14.885,0,28.114,8.904,33.704,22.684
		c1.582,3.9-0.298,8.343-4.198,9.926c-3.896,1.582-8.343-0.297-9.926-4.198c-3.245-8.001-10.931-13.172-19.581-13.172
		c-5.64,0-10.951,2.2-14.955,6.194c-2.011,2.01-3.567,4.356-4.62,6.965C88.485,312.664,85.629,314.466,82.614,314.466z"/>
	<path style="fill:#475D6D;" d="M73.719,258.053c-4.208,0-7.62-3.412-7.62-7.62v-3.43c0-4.208,3.412-7.62,7.62-7.62
		c4.208,0,7.62,3.412,7.62,7.62v3.43C81.34,254.642,77.928,258.053,73.719,258.053z"/>
	<path style="fill:#475D6D;" d="M144.798,258.053c-4.208,0-7.62-3.412-7.62-7.62v-3.43c0-4.208,3.412-7.62,7.62-7.62
		s7.62,3.412,7.62,7.62v3.43C152.418,254.642,149.006,258.053,144.798,258.053z"/>
	<path style="fill:#475D6D;" d="M38.265,211.91h20.412c5.775,0,11.01-3.396,13.364-8.669l5.296-11.863
		c1.44-3.226,5.524-4.247,8.313-2.078l25.106,19.527c2.569,1.998,5.73,3.083,8.985,3.083h60.513v-44.084
		c0-22.033-17.861-39.894-39.894-39.894H91.857c-7.252,0-13.13,5.879-13.13,13.13v7.025H57.574c-10.665,0-19.31,8.645-19.31,19.31
		L38.265,211.91L38.265,211.91z"/>
</g>
<path style="fill:#F9DC6A;" d="M145.759,83.455v113.84h253.214V73.488c0-25.048-20.305-45.353-45.353-45.353h-18.413l-1.394-2.87
	C326.31,9.811,310.64,0,293.461,0h-64.247C183.123,0,145.759,37.364,145.759,83.455z"/>
<path style="fill:#E5AC51;" d="M353.62,28.135h-18.413l-1.394-2.87C326.31,9.811,310.64,0,293.461,0h-24.17
	c17.179,0,32.849,9.811,40.353,25.265l1.394,2.87h18.413c25.048,0,45.353,20.305,45.353,45.353v123.807h24.17V73.488
	C398.973,48.44,378.668,28.135,353.62,28.135z"/>
<path style="fill:#2BB4F3;" d="M409.383,506.395H135.349c-2.114,0-3.755-1.842-3.512-3.942l10.211-88.322
	c4.672-40.422,38.9-70.915,79.599-70.915h101.439c40.699,0,74.927,30.493,79.599,70.915l10.211,88.322
	C413.138,504.553,411.497,506.395,409.383,506.395z"/>
<path style="fill:#1687C4;" d="M192.38,506.395v-70.193c0-4.208-3.412-7.62-7.62-7.62s-7.62,3.412-7.62,7.62v70.193H192.38z"/>
<path style="fill:#F2A077;" d="M235.501,281.738v74.308c0,20.36,16.505,36.865,36.865,36.865l0,0
	c20.36,0,36.865-16.505,36.865-36.865v-74.308L235.501,281.738L235.501,281.738z"/>
<path style="fill:#FFCCAA;" d="M415.995,193.012v10.854c0,12.67-10.271,22.941-22.941,22.941H370.46
	c-1.342,25.928-12.726,49.214-30.353,66.009c-17.628,16.784-41.477,27.085-67.74,27.085c-52.526,0-95.42-41.217-98.093-93.094
	H151.68c-12.67,0-22.941-10.271-22.941-22.941v-10.854c0-12.67,10.271-22.941,22.941-22.941h22.454V129.06h82.468
	c39.233,0,71.833-28.364,78.403-65.711c0.57-3.242,4.437-4.58,6.878-2.372c17.64,15.956,28.72,39.031,28.72,64.696v44.399h22.454
	C405.724,170.072,415.995,180.342,415.995,193.012z"/>
<path style="fill:#F2A077;" d="M393.054,170.072H370.6v-44.399c0-25.665-11.079-48.739-28.72-64.696
	c-2.441-2.208-6.307-0.87-6.878,2.372c-0.97,5.515-2.522,10.828-4.565,15.889c8.472,13.445,13.377,29.365,13.377,46.435v44.399
	l-0.141,56.735c-1.342,25.928-12.726,49.214-30.353,66.009c-14.578,13.88-33.413,23.32-54.347,26.173
	c4.379,0.597,8.848,0.912,13.392,0.912c26.263,0,50.113-10.302,67.74-27.085c17.628-16.794,29.011-40.081,30.353-66.009h22.594
	c12.67,0,22.941-10.271,22.941-22.941v-10.854C415.995,180.343,405.724,170.072,393.054,170.072z"/>
<g>
	<path style="fill:#475D6D;" d="M235.499,262.11c-0.95,0-1.914-0.179-2.849-0.556c-3.903-1.575-5.79-6.016-4.215-9.918
		c2.376-5.887,5.875-11.167,10.402-15.694c8.977-8.955,20.883-13.882,33.53-13.882c19.401,0,36.643,11.604,43.927,29.564
		c1.582,3.9-0.298,8.343-4.197,9.926c-3.903,1.583-8.343-0.298-9.926-4.198c-4.94-12.181-16.639-20.051-29.804-20.051
		c-8.584,0-16.666,3.347-22.76,9.425c-3.063,3.063-5.434,6.637-7.039,10.614C241.369,260.308,238.514,262.11,235.499,262.11z"/>
	<path style="fill:#475D6D;" d="M223.19,184.051c-4.208,0-7.62-3.412-7.62-7.62v-4.746c0-4.208,3.412-7.62,7.62-7.62
		c4.208,0,7.62,3.412,7.62,7.62v4.746C230.81,180.639,227.398,184.051,223.19,184.051z"/>
	<path style="fill:#475D6D;" d="M321.543,184.051c-4.209,0-7.62-3.412-7.62-7.62v-4.746c0-4.208,3.411-7.62,7.62-7.62
		s7.62,3.412,7.62,7.62v4.746C329.163,180.639,325.752,184.051,321.543,184.051z"/>
</g>
<circle style="fill:#D2F5FF;" cx="415.991" cy="421.45" r="90.55"/>
<path style="fill:#FF5A59;" d="M470.863,406.117H361.126c-1.831,0-3.316,1.484-3.316,3.316v24.038c0,1.831,1.484,3.316,3.316,3.316
	h109.738c1.831,0,3.316-1.484,3.316-3.316v-24.038C474.179,407.601,472.695,406.117,470.863,406.117z"/>
<g>
</g>
<g>
</g>
<g>
</g>
<g>
</g>
<g>
</g>
<g>
</g>
<g>
</g>
<g>
</g>
<g>
</g>
<g>
</g>
<g>
</g>
<g>
</g>
<g>
</g>
<g>
</g>
<g>
</g>
</svg>
