<svg height="504pt" viewBox="-56 0 504 504.0012" width="504pt" xmlns="http://www.w3.org/2000/svg"><path d="m387.671875 500h-383.671875v-496h288.949219l94.722656 94.726562zm0 0" fill="#f4efed"/><path d="m4 4h20v496h-20zm0 0" fill="#fff"/><path d="m367.671875 78.726562v421.273438h20v-401.273438zm0 0" fill="#d6d1cf"/><path d="m387.671875 98.726562h-94.722656v-94.726562zm0 0" fill="#fcc24c"/><path d="m4 321.066406h383.671875v178.933594h-383.671875zm0 0" fill="#7bac51"/><path d="m4 321.066406h20v178.933594h-20zm0 0" fill="#99ca6f"/><path d="m367.671875 321.066406h20v178.933594h-20zm0 0" fill="#5d8e33"/><g fill="#690589"><path d="m387.671875 504h-383.671875c-2.207031 0-4-1.789062-4-4v-496c0-2.207031 1.792969-4 4-4h288.949219c1.058593 0 2.078125.421875 2.828125 1.171875l94.722656 94.726563c.75.75 1.171875 1.765624 1.171875 2.828124v401.273438c0 2.210938-1.792969 4-4 4zm-379.671875-8h375.671875v-395.617188l-92.382813-92.382812h-283.289062zm0 0"/><path d="m20 114.765625c-2.207031 0-4-1.792969-4-4v-24c0-2.207031 1.792969-4 4-4s4 1.792969 4 4v24c0 2.207031-1.789062 4-4 4zm0 0"/><path d="m387.671875 102.726562h-94.722656c-2.207031 0-4-1.792968-4-4v-94.726562c0-1.617188.972656-3.074219 2.46875-3.695312 1.496093-.621094 3.214843-.2773442 4.359375.867187l94.722656 94.726563c1.144531 1.144531 1.488281 2.863281.867188 4.359374-.617188 1.492188-2.078126 2.46875-3.695313 2.46875zm-90.722656-8h81.066406l-81.066406-81.070312zm0 0"/><path d="m387.671875 504h-383.671875c-2.207031 0-4-1.789062-4-4v-178.933594c0-2.210937 1.792969-4 4-4h383.671875c2.207031 0 4 1.789063 4 4v178.933594c0 2.210938-1.792969 4-4 4zm-379.671875-8h375.671875v-170.933594h-375.671875zm0 0"/><path d="m195.835938 65.644531h-146.328126c-2.210937 0-4-1.792969-4-4s1.789063-4 4-4h146.328126c2.207031 0 4 1.792969 4 4s-1.792969 4-4 4zm0 0"/><path d="m340.3125 134.769531h-290.804688c-2.210937 0-4-1.789062-4-4 0-2.207031 1.789063-4 4-4h290.804688c2.207031 0 4 1.792969 4 4 0 2.210938-1.792969 4-4 4zm0 0"/><path d="m340.3125 203.894531h-290.804688c-2.210937 0-4-1.792969-4-4s1.789063-4 4-4h290.804688c2.207031 0 4 1.792969 4 4s-1.792969 4-4 4zm0 0"/><path d="m340.3125 273.019531h-290.804688c-2.210937 0-4-1.789062-4-4 0-2.207031 1.789063-4 4-4h290.804688c2.207031 0 4 1.792969 4 4 0 2.210938-1.792969 4-4 4zm0 0"/><path d="m67.589844 445.882812v-77.132812c0-3.921875 3.136718-7.191406 7.191406-7.191406 4.050781 0 7.320312 3.269531 7.320312 7.191406v69.8125h35.429688c3.792969 0 7.191406 3.269531 7.191406 7.320312 0 3.925782-3.398437 7.191407-7.191406 7.191407h-42.359375c-.261719 0-.261719 0-.261719 0-.128906 0-.128906 0-.128906 0-4.050781 0-7.191406-3.265625-7.191406-7.191407zm0 0"/><path d="m208.128906 372.933594c8.105469 8.628906 13.203125 20.132812 13.203125 33.074218 0 12.945313-5.097656 24.582032-13.203125 33.078126-7.714844 8.5-19.21875 13.988281-31.246094 13.988281-12.550781 0-24.054687-5.488281-32.03125-13.988281-8.105468-8.496094-12.945312-20.132813-12.945312-33.078126 0-12.941406 4.839844-24.445312 12.945312-33.074218 7.972657-8.628906 19.480469-13.988282 32.03125-13.988282 12.027344 0 23.53125 5.359376 31.246094 13.988282zm-1.699218 33.074218c0-8.886718-3.53125-17.121093-8.890626-22.875-5.492187-5.882812-12.8125-9.285156-20.65625-9.285156-8.367187 0-15.691406 3.398438-21.179687 9.285156-5.492187 5.753907-8.890625 13.988282-8.890625 22.875 0 8.890626 3.398438 17.128907 8.890625 22.75 5.488281 5.882813 12.8125 9.414063 21.179687 9.414063 7.84375 0 15.164063-3.53125 20.65625-9.414063 5.359376-5.621093 8.890626-13.859374 8.890626-22.75zm0 0"/><path d="m243.027344 406.140625c0-26.28125 21.703125-47.199219 48.242187-47.199219 11.113281 0 21.703125 3.792969 29.808594 10.199219 3.394531 2.484375 3.921875 7.324219 1.4375 10.589844-2.484375 3.140625-7.320313 3.789062-10.589844 1.175781-5.625-4.3125-12.8125-7.058594-20.65625-7.058594-9.414062 0-17.648437 3.53125-23.535156 9.542969-6.144531 5.882813-9.804687 13.859375-9.804687 22.75 0 8.625 3.660156 16.601563 9.804687 22.488281 5.882813 6.011719 14.121094 9.539063 23.535156 9.539063 6.535157 0 12.679688-1.957031 17.910157-4.964844v-17.910156h-18.695313c-4.054687 0-7.453125-3.398438-7.453125-7.453125 0-4.183594 3.398438-7.324219 7.453125-7.324219h26.015625c4.183594 0 7.582031 3.140625 7.582031 7.324219v28.890625c0 .914062-.261719 1.4375-.390625 2.222656-.128906.261719-.128906.390625-.261718.652344v.128906c-.394532 1.179687-1.179688 2.222656-2.484376 3.140625-8.238281 6.402344-18.566406 10.195312-29.679687 10.195312-26.535156.003907-48.238281-20.78125-48.238281-46.929687zm0 0"/></g></svg>